<svg xmlns="http://www.w3.org/2000/svg" version="1.1" width="600px" height="600px" xlink="http://www.w3.org/1999/xlink" style="overflow:hidden!important;"><g id="svga-group-wrapper" transform="scale(3 3)"><g id="svga-group-backs-single"><path id="SvgjsPath6115" d="M225 225H-25V-25h250V225z" fill="#5e8c6a" stroke-width="none" opacity="1" stroke="none"></path><path id="SvgjsPath6116" d="M100 99.999l-10-150h20L100 99.999zM72.382-47.775L53.01-42.802 100 99.999 72.382-47.775zM36.5-36.265l-17.527 9.635L100 99.999 36.5-36.265zM4.607-16.192L-9.973-2.5 100 99.999 4.607-16.192zM-21.292 11.182l-10.717 16.887L100 99.999 -21.292 11.182zM-39.569 44.136l-6.18 19.022L100 99.999 -39.569 44.136zM-49.077 80.6l-1.256 19.961L100 99.999 -49.077 80.6zM-49.218 118.283l3.748 19.646L100 99.999 -49.218 118.283zM-39.983 154.817l8.516 18.098L100 99.999 -39.983 154.817zM-21.953 187.907l12.75 15.411L100 99.999 -21.953 187.907zM3.74 215.474l16.182 11.757L100 99.999 3.74 215.474zM35.481 235.785l18.597 7.363L100 99.999 35.481 235.785zM71.276 247.564l19.844 2.507L100 99.999 71.276 247.564zM108.877 250.071l19.844-2.507L100 99.999 108.877 250.071zM145.919 243.148l18.598-7.362L100 99.999 145.919 243.148zM180.076 227.231l16.183-11.756L100 99.999 180.076 227.231zM209.201 203.32l12.751-15.411L100 99.999 209.201 203.32zM231.465 172.917l8.519-18.098L100 99.999 231.465 172.917zM245.469 137.933l3.75-19.648L100 99.999 245.469 137.933zM250.332 100.564l-1.254-19.964L100 99.999 250.332 100.564zM245.749 63.161l-6.179-19.025L100 99.999 245.749 63.161zM232.009 28.072l-10.716-16.891L100 99.999 232.009 28.072zM209.974-2.498l-14.58-13.695L100 99.999 209.974-2.498zM181.028-26.627l-17.527-9.639L100 99.999 181.028-26.627zM146.992-42.8l-19.374-4.978L100 99.999 146.992-42.8z" fill="url(#SvgjsRadialGradient6117)" opacity="1"></path></g><g id="svga-group-subwrapper" ><g id="svga-group-hair-back" ><path id="SvgjsPath6132" d="M160.527 108.896c-0.826 32.13-25.267 102.589-58.469 102.589 -33.201 0-60.969-69.5-61.767-102.589 -1.15-47.67 26.917-86.339 60.118-86.339C133.611 22.558 161.753 61.229 160.527 108.896z" fill="#543c32" stroke-width="none" opacity="1" stroke="none"></path></g><g id="svga-group-humanbody-single"><path id="SvgjsPath5969" d="M190.858 199.866c-6.008-10.158-13.474-11.973-19.628-13.936 -6.323-2.016-19.346-3.178-26.449-4.6 -6.86-1.373-23.153-5.789-23.339-13.488 -0.192-8.066 4.291-40.09 4.291-40.09H74.005c0 0 4.487 32.023 4.294 40.09 -0.184 7.699-16.48 12.115-23.341 13.488 -7.104 1.422-20.125 2.584-26.448 4.6 -6.156 1.963-13.624 3.777-19.632 13.936 -3.644 6.16-6.008 16.133-6.008 27.133h194C196.869 215.999 194.509 206.026 190.858 199.866z" fill="#ecc4b8" stroke-width="none" opacity="1" stroke="none"></path><path id="SvgjsPath5970" d="M121.442 167.843c2.495 10.929 18.165 13.698 26.293 15.325 21.909 4.379 33.772 5.134 42.297 19.539 2.903 4.916 5.459 15.864 5.962 24.153 1.835 0.291 0.531-17.432-5.136-26.994 -9.742-16.472-29.089-15.135-46.077-18.535C137.921 179.958 121.628 175.542 121.442 167.843L121.442 167.843zM78.558 167.843c-0.186 7.699-16.479 12.115-23.339 13.488 -16.988 3.4-36.335 2.063-46.077 18.535 -5.667 9.563-6.971 27.285-5.136 26.994 0.503-8.289 3.059-19.237 5.962-24.153 8.524-14.405 20.388-15.16 42.297-19.539C60.393 181.541 76.063 178.771 78.558 167.843L78.558 167.843z" fill="#fbe4dd" stroke-width="none" opacity="1" stroke="none"></path><path id="SvgjsPath5971" d="M51.206 189.513c0 0 28.641 0.299 33.473 1.885 2.314 0.758 8.372 5.633 8.372 5.633s-6.556-3.17-8.658-3.758C79.51 191.909 51.206 189.513 51.206 189.513zM99.795 199.999c2.053-0.041 7.887-3.799 7.887-3.799s-5.574 2.059-7.342 2.16c-1.491 0.086-6.366-1.238-6.366-1.238S98.112 200.032 99.795 199.999zM117.008 192.757c6.75-1.818 29.786-3.23 29.786-3.23s-23.791-0.516-30.51 1.725c-2.252 0.752-7.562 5.16-7.562 5.16S114.786 193.354 117.008 192.757z" fill="#dda696" stroke-width="none" opacity="1" stroke="none"></path><path id="SvgjsPath5972" d="M190.858 199.866c-9.741-16.471-29.122-15.142-46.077-18.535 -6.86-1.373-23.153-5.789-23.339-13.488 -0.192-8.066 4.291-40.09 4.291-40.09H74.005c0 0 4.487 32.023 4.294 40.09 -0.184 7.699-16.48 12.115-23.341 13.488 -7.104 1.422-20.125 2.584-26.448 4.6 -6.156 1.963-13.624 3.777-19.632 13.936 -3.644 6.16-6.008 16.133-6.008 27.133h194C196.869 215.999 194.509 206.026 190.858 199.866z" fill="none" stroke="#be725b" stroke-width="1.5" opacity="1"></path></g><g id="svga-group-chinshadow-single"><path id="SvgjsPath6240" d="M90.469 169.769c4.474 1.646 14.594 1.646 19.067 0 3.511-1.291 7.479-4.019 11.489-7.484 0.785-10.522 3.279-28.936 3.919-33.578 -1.113-0.109-2.256-0.21-3.428-0.303H78.609c-1.305 0.103-2.578 0.216-3.811 0.339 0.643 4.663 3.096 22.765 3.899 33.297C82.804 165.622 86.875 168.447 90.469 169.769z" fill="url(#SvgjsLinearGradient6241)" opacity="1"></path></g><g id="svga-group-clothes-single" ><path id="SvgjsPath6226" d="M3.229 223.031c-0.622-0.007-0.456-0.006-0.92-0.006 0.025-17.784 6.689-31.059 17.837-35.518 1.466 0.314 3.037 0.725 4.514 1.033C11.551 194.886 4.531 208.814 3.229 223.031zM181.643 188.404c-1.855 0.251-3.683 0.491-5.504 0.729 13.353 5.75 17.424 20.534 19.434 33.854 0.344-0.001 0.655-0.002 0.931-0.002C195.421 206.217 195.152 195.351 181.643 188.404z" fill="#f1fcfd" stroke-width="none" opacity="1" stroke="none"></path><path id="SvgjsPath6227" d="M181.509 192.193c0.734-0.111 2.033-0.324 2.761-0.438 -1.678-1.271-2.67-1.958-3.67-2.549 -5.851 1.009-59.284 7.112-88.51 7.112 -38.337 0-66.622-6.76-71.951-8.293 -1.09 0.62-2.15 1.301-3.15 2.061 1 0.257 2.201 0.598 3.218 0.841 -10.338 7.09-15.825 19.518-16.978 32.104 30.39 0.341 61.447 0.514 92.321 0.514 0.005 0 0.01 0 0.015 0 40.676 0 71.674-0.298 88.328-0.458 5.388-0.052 9.327-0.09 11.679-0.1C193.85 211.572 190.635 199.159 181.509 192.193z" fill="#cbe9ee" stroke-width="none" opacity="1" stroke="none"></path><path id="SvgjsPath6228" d="M23.439 189.002c-1.117 0.595-2.181 1.252-3.204 1.955 49.803 12.038 110.22 9.005 161.174 1.236 -1.131-0.854-2.354-1.625-3.673-2.303C129.006 198.106 71.062 201.817 23.439 189.002z" fill="#a8d7df" stroke-width="none" opacity="1" stroke="none"></path><path id="SvgjsPath6229" d="M181.629 188.306c-89.42 12.081-124.385 7.031-161.52-0.891 -13.279 5.312-17.9 21.352-17.9 35.71 0.17 0 0.33 0 0.49 0 105.661 1.193 182.323-0.04 193.91-0.04C195.509 206.252 195.316 195.321 181.629 188.306zM20.239 188.125c49.132 14.134 109.964 10.021 160.36 1.28 1 0.591 1.992 1.079 3.67 2.35 -52.607 8.26-115.869 11.615-167.18-1.569C18.089 189.426 19.149 188.745 20.239 188.125zM2.769 222.605c1.961-14.393 4.62-24.719 13.97-32.15 50.694 14.553 116.182 11.469 168.26 1.86 8.309 6.651 7.884 13.707 11.01 30.32C140.967 222.022 68.396 221.847 2.769 222.605z" fill="#6ab4c0" stroke-width="none" opacity="1" stroke="none"></path></g><g id="svga-group-head" ><g id="svga-group-ears-left" ><path id="SvgjsPath6106" d="M47.001 83.974c-1.376-2.313-5.638-7.997-9.98-6.603 -2.749 0.882-3.293 3.765-3.735 6.311 -0.588 3.386 0.471 10.083 1.389 12.503 0.881 2.325 3.533 6.816 5.264 8.527 2.13 2.1 4.775 8.793 5.194 9.487 0.66 1.097 1.536 2.745 4.122 2.538 2.853-0.229 4.584-1.742 5.856-1.999C58.253 114.109 50.582 89.995 47.001 83.974z" fill="#ecc4b8" stroke="#be725b" stroke-width="1.5" opacity="1"></path><path id="SvgjsPath6107" d="M44.197 97.997c-0.132-0.548 0.007-1.47 0.142-2.362 0.124-0.812 0.24-1.579 0.169-2.121 -0.267-2.032-1.773-5.893-2.757-7.985 -1.132-2.407-2.963-5.439-5.262-6.221 -0.95-0.324-1.575 0.063-1.938 0.456 -0.266 0.289-0.325 0.627-0.238 0.667 0.086 0.04 0.285-0.24 0.572-0.504 0.235-0.216 0.579-0.402 1.051-0.363 -0.19 1.011-1.167 6.49-0.744 10.225 0.333 2.938 1.593 5.131 1.79 5.46 0.029 0.346 0.077 0.685 0.148 1.014 0.929 4.287 4.971 9.163 6.378 10.758 0.259 0.295 0.531 0.47 0.598 0.398 0.066-0.072-0.094-0.364-0.353-0.66 -1.388-1.585-5.391-6.442-6.289-10.579 -0.952-4.389 2.318-10.896 3.048-12.272 0.371 0.646 0.687 1.267 0.93 1.785 0.19 0.406 0.402 0.881 0.619 1.395 -0.429 0.718-3.434 5.958-2.338 10.153 0.406 1.546 2.235 3.54 3.447 4.086 0.667 0.301 0.919 0.75 1.209 1.271 0.336 0.604 0.718 1.288 1.828 1.784 0.225 0.102 0.429 0.142 0.61 0.142 0.313 0 0.551-0.126 0.725-0.276 0.018 0.266 0.017 0.604 0.009 0.917 -0.012 0.404 0.042 0.737 0.137 0.745 0.094 0.008 0.196-0.313 0.207-0.717 0.016-0.496 0.013-1.11-0.072-1.403 -0.248-0.865-1.008-1.841-1.813-2.875C45.221 99.896 44.403 98.844 44.197 97.997zM36.95 94.196c-2.177-6.731 0.656-12.54 1.144-13.464 0.85 0.775 1.6 1.811 2.21 2.824C39.86 84.365 37.041 89.669 36.95 94.196zM46.341 104.042c-1.004-0.447-1.339-1.051-1.666-1.633 -0.293-0.527-0.598-1.072-1.369-1.42 -0.168-0.075-0.352-0.191-0.542-0.323 -2.486-5.906 0.272-8.488 0.963-9.017 0.211 0.722 0.369 1.384 0.439 1.915 0.063 0.488-0.052 1.263-0.167 2.012 -0.142 0.929-0.286 1.89-0.137 2.512 0.226 0.926 1.069 2.009 1.884 3.057 0.723 0.929 1.466 1.888 1.721 2.67C47.359 103.972 47.017 104.345 46.341 104.042z" fill="#be725b" stroke-width="none" opacity="1" stroke="none"></path></g><g id="svga-group-ears-right" ><path id="SvgjsPath6108" d="M152.736 83.974c1.377-2.313 5.639-7.997 9.98-6.603 2.75 0.882 3.293 3.765 3.736 6.311 0.588 3.386-0.471 10.083-1.389 12.503 -0.881 2.325-3.533 6.816-5.266 8.527 -2.129 2.1-4.775 8.793-5.193 9.487 -0.658 1.097-1.535 2.745-4.121 2.538 -2.854-0.229-4.584-1.742-5.857-1.999C141.484 114.109 149.156 89.995 152.736 83.974z" fill="#ecc4b8" stroke="#be725b" stroke-width="1.5" opacity="1"></path><path id="SvgjsPath6109" d="M153.727 100.913c-0.805 1.033-1.564 2.009-1.813 2.875 -0.086 0.293-0.088 0.907-0.072 1.403 0.012 0.404 0.113 0.725 0.207 0.717s0.148-0.341 0.137-0.745c-0.008-0.313-0.008-0.651 0.01-0.917 0.174 0.15 0.412 0.276 0.725 0.276 0.182 0 0.385-0.04 0.609-0.142 1.109-0.496 1.492-1.18 1.828-1.784 0.289-0.52 0.543-0.969 1.209-1.271 1.213-0.546 3.041-2.54 3.447-4.086 1.096-4.194-1.908-9.435-2.338-10.153 0.217-0.513 0.43-0.988 0.619-1.395 0.244-0.518 0.559-1.139 0.93-1.785 0.73 1.377 4 7.883 3.049 12.272 -0.896 4.137-4.9 8.994-6.289 10.579 -0.258 0.296-0.418 0.588-0.352 0.66 0.066 0.071 0.338-0.104 0.598-0.398 1.406-1.596 5.449-6.471 6.379-10.758 0.07-0.329 0.117-0.668 0.146-1.014 0.197-0.329 1.459-2.523 1.791-5.46 0.422-3.735-0.555-9.214-0.744-10.225 0.473-0.039 0.814 0.146 1.051 0.363 0.287 0.264 0.486 0.544 0.572 0.504s0.027-0.378-0.238-0.667c-0.363-0.393-0.988-0.779-1.938-0.456 -2.299 0.782-4.131 3.814-5.262 6.221 -0.984 2.093-2.49 5.953-2.758 7.985 -0.072 0.542 0.045 1.309 0.17 2.121 0.135 0.892 0.273 1.814 0.141 2.362C155.336 98.844 154.518 99.896 153.727 100.913zM159.434 83.555c0.611-1.013 1.361-2.049 2.211-2.824 0.488 0.925 3.32 6.733 1.145 13.464C162.697 89.669 159.879 84.365 159.434 83.555zM152.27 103.816c0.254-0.782 0.998-1.741 1.721-2.67 0.816-1.048 1.658-2.131 1.885-3.057 0.148-0.622 0.004-1.583-0.137-2.512 -0.115-0.749-0.23-1.524-0.166-2.012 0.068-0.531 0.227-1.193 0.438-1.915 0.691 0.529 3.449 3.111 0.965 9.017 -0.191 0.132-0.375 0.248-0.543 0.323 -0.771 0.348-1.074 0.893-1.369 1.42 -0.326 0.582-0.662 1.186-1.666 1.633C152.721 104.345 152.379 103.972 152.27 103.816z" fill="#be725b" stroke-width="none" opacity="1" stroke="none"></path></g><g id="svga-group-faceshape-wrap" ><g id="svga-group-faceshape-single" ><path id="SvgjsPath6237" d="M144.004 125.052c-6.87 10.737-23.072 30.026-34.468 34.218 -4.474 1.646-14.594 1.646-19.067 0 -11.396-4.192-27.596-23.481-34.467-34.218 -6.753-10.551-14.852-47.803-14.863-47.856 -1.3-4.912-1.996-10.066-2.004-15.382C39.082 28.339 66.289 1.168 99.907 1.116c33.621-0.052 60.913 27.032 60.963 60.506 0.009 5.316-0.669 10.473-1.952 15.389C158.901 77.063 150.78 114.46 144.004 125.052z" fill="#ecc4b8" stroke-width="none" opacity="1"></path><path id="SvgjsPath6238" d="M110.152 1.969c26.994 6.24 47.097 30.337 47.052 59.111 -0.009 5.315-0.704 10.471-2.004 15.382 -0.012 0.053-7.377 37.307-14.13 47.856 -6.872 10.735-22.339 29.292-33.734 33.484 -1.476 0.544-5.027 1.092-7.334 1.092 -2.307 0-5.857-0.548-7.333-1.092 -11.396-4.192-26.863-22.749-33.734-33.484 -6.753-10.55-14.119-47.803-14.13-47.856 -1.3-4.911-1.996-10.066-2.004-15.382C42.756 32.307 62.857 8.209 89.853 1.969 61.03 6.788 39.087 31.751 39.134 61.813c0.008 5.315 0.704 10.47 2.004 15.382 0.012 0.053 8.11 37.306 14.863 47.856 6.871 10.736 23.072 30.025 34.467 34.218 2.239 0.824 5.889 1.235 9.537 1.232 3.646 0.001 7.292-0.408 9.53-1.232 11.396-4.192 27.596-23.481 34.468-34.218 6.753-10.551 14.852-47.803 14.862-47.856 1.3-4.912 1.996-10.066 2.004-15.382C160.918 31.751 138.975 6.788 110.152 1.969z" fill="#e4b5a7" stroke-width="none" opacity="1"></path><path id="SvgjsPath6239" d="M144.004 125.052c-6.87 10.737-23.072 30.026-34.468 34.218 -4.474 1.646-14.594 1.646-19.067 0 -11.396-4.192-27.596-23.481-34.467-34.218 -6.753-10.551-14.852-47.803-14.863-47.856 -1.3-4.912-1.996-10.066-2.004-15.382C39.082 28.339 66.289 1.168 99.907 1.116c33.621-0.052 60.913 27.032 60.963 60.506 0.009 5.316-0.669 10.473-1.952 15.389C158.901 77.063 150.78 114.46 144.004 125.052z" fill="none" stroke="#be725b" stroke-width="1.5" opacity="1"></path></g></g><g id="svga-group-mouth-single" ><path id="SvgjsPath6216" d="M99.983 143.169c-3.24 0-4.753-3.102-4.753-3.102l9.279-0.067C104.509 140 102.832 143.169 99.983 143.169z" fill="url(#SvgjsLinearGradient6217)" opacity="1"></path><path id="SvgjsPath6220" d="M99.869 131.603c-6.552 0-9.471 2.347-12 5.397h24C109.771 133.875 106.703 131.603 99.869 131.603z" fill="#ffffff" stroke-width="none" opacity="1"></path><path id="SvgjsPath6221" d="M99.869 131.603c-6.552 0-9.471 2.347-12 5.397h24C109.771 133.875 106.703 131.603 99.869 131.603z" fill="none" stroke="#004f74" stroke-width="0.75" opacity="1"></path></g><g id="svga-group-eyes-left" ><g id="svga-group-eyesback-left"><path id="SvgjsPath6156" d="M86.66 84.231c0.748 1.472 1.181 3.05 1.181 4.654 0 3.108-1.716 5.337-3.133 6.88 -6.936 6.296-17.723 5.964-23.191-1.044 -0.984-1.617-1.528-3.528-1.518-5.667C65.019 76.267 78.859 72.676 86.66 84.231z" fill="url(#SvgjsRadialGradient6157)" opacity="1"></path></g><g id="svga-group-eyesiriswrapper-left" transform="translate(0 1)"><g id="svga-group-eyesiriscontrol-left" ><g id="svga-group-eyesiris-left" ><path id="SvgjsPath6045" d="M83.5 87c0 4.694-3.806 8.5-8.499 8.5 -4.694 0-8.501-3.806-8.501-8.5l0 0c0-4.694 3.807-8.5 8.501-8.5C79.694 78.499 83.5 82.305 83.5 87L83.5 87z" fill="#4e60a3" stroke-width="none" opacity="1"></path><path id="SvgjsPath6046" d="M74.048 78.595c-0.033 0.004-0.066 0.008-0.101 0.012 0.041 0.191 0.081 0.384 0.12 0.575C74.06 78.987 74.055 78.789 74.048 78.595zM74.066 79.18c0.099 2.793 0.262 5.282 0.732 6.183C75.047 84.377 74.625 81.92 74.066 79.18zM74.8 85.365c-0.061 0.236-0.153 0.397-0.294 0.452 -0.142 0.053-0.319-0.008-0.521-0.146 0.058 0.236 0.052 0.422-0.051 0.537 -0.102 0.114-0.285 0.142-0.527 0.11 0.16 0.184 0.242 0.353 0.206 0.5 -0.039 0.148-0.189 0.258-0.415 0.343 0.225 0.088 0.376 0.199 0.411 0.347 0.036 0.148-0.046 0.315-0.205 0.498 0.241-0.029 0.426 0.001 0.525 0.115 0.101 0.114 0.106 0.301 0.05 0.537 0.199-0.137 0.376-0.197 0.518-0.142 0.143 0.053 0.234 0.216 0.291 0.454 0.114-0.215 0.243-0.353 0.396-0.368 0.148-0.02 0.307 0.084 0.466 0.267 0.002-0.244 0.053-0.423 0.181-0.51 0.124-0.086 0.311-0.069 0.537 0.018 -0.11-0.216-0.148-0.398-0.078-0.534 0.071-0.135 0.245-0.207 0.487-0.235 -0.199-0.14-0.321-0.283-0.318-0.436 -0.001-0.153 0.119-0.296 0.321-0.434 -0.241-0.03-0.412-0.103-0.484-0.237 -0.07-0.135-0.031-0.319 0.081-0.535 -0.229 0.085-0.413 0.102-0.538 0.016 -0.126-0.086-0.177-0.267-0.178-0.51 -0.158 0.182-0.316 0.282-0.468 0.262C75.041 85.714 74.911 85.58 74.8 85.365zM75.66 85.471c0.679-0.758 1.446-3.13 2.224-5.813C76.674 82.174 75.662 84.453 75.66 85.471zM77.883 79.657c0.085-0.172 0.172-0.348 0.253-0.524 -0.03-0.011-0.06-0.024-0.09-0.037C77.992 79.284 77.938 79.472 77.883 79.657zM76.377 85.965c0.953-0.357 2.736-2.101 4.671-4.115C78.808 83.517 76.851 85.065 76.377 85.965zM81.048 81.851c0.142-0.106 0.287-0.213 0.433-0.318 -0.021-0.025-0.043-0.047-0.06-0.07C81.297 81.59 81.174 81.722 81.048 81.851zM76.777 86.738c1.01 0.125 3.399-0.591 6.052-1.475C80.068 85.698 77.617 86.159 76.777 86.738zM82.829 85.263c0.156-0.022 0.318-0.048 0.478-0.073 -0.007-0.026-0.013-0.054-0.02-0.081C83.135 85.16 82.979 85.212 82.829 85.263zM76.775 87.606c0.836 0.583 3.284 1.057 6.038 1.505C80.171 88.214 77.786 87.484 76.775 87.606zM82.813 89.111c0.135 0.047 0.271 0.095 0.404 0.138 0.007-0.024 0.013-0.047 0.018-0.071C83.098 89.158 82.954 89.135 82.813 89.111zM76.367 88.375c0.471 0.902 2.42 2.462 4.649 4.142C79.092 90.492 77.32 88.737 76.367 88.375zM81.018 92.514c0.083 0.087 0.17 0.179 0.253 0.268 0.014-0.017 0.027-0.031 0.043-0.046C81.215 92.662 81.113 92.587 81.018 92.514zM75.652 88.867c-0.004 1.019 0.995 3.302 2.191 5.827C77.079 92.006 76.327 89.628 75.652 88.867zM77.844 94.694c0.03 0.106 0.062 0.215 0.09 0.324 0.021-0.008 0.036-0.015 0.055-0.02C77.941 94.896 77.892 94.793 77.844 94.694zM74.788 88.968c-0.476 0.902-0.653 3.386-0.768 6.178C74.594 92.413 75.031 89.958 74.788 88.968zM74.021 95.146c-0.023 0.106-0.044 0.214-0.066 0.323 0.02 0.004 0.035 0.005 0.055 0.007C74.013 95.368 74.018 95.254 74.021 95.146zM73.979 88.657c-0.844 0.576-2.154 2.697-3.553 5.114C72.204 91.617 73.733 89.645 73.979 88.657zM70.427 93.771c-0.074 0.09-0.152 0.185-0.229 0.274 0.018 0.012 0.034 0.02 0.053 0.034C70.309 93.976 70.369 93.873 70.427 93.771zM73.405 88.006c-1.015 0.119-3.16 1.385-5.522 2.875C70.46 89.801 72.726 88.768 73.405 88.006zM67.883 90.884c-0.122 0.051-0.247 0.102-0.372 0.156 0.009 0.019 0.021 0.038 0.033 0.057C67.658 91.027 67.771 90.954 67.883 90.884zM73.198 87.161c-0.951-0.365-3.441-0.238-6.227-0.016C69.755 87.383 72.244 87.521 73.198 87.161zM66.972 87.145c-0.151-0.014-0.308-0.028-0.457-0.041 -0.001 0.027-0.003 0.053-0.001 0.08C66.669 87.169 66.822 87.156 66.972 87.145zM73.407 86.318c-0.67-0.763-2.932-1.809-5.499-2.905C70.259 84.915 72.397 86.196 73.407 86.318zM67.908 83.413c-0.147-0.095-0.297-0.189-0.446-0.285 -0.013 0.026-0.026 0.053-0.041 0.078C67.585 83.276 67.75 83.344 67.908 83.413zM73.985 85.67c-0.239-0.989-1.758-2.967-3.521-5.132C71.849 82.963 73.147 85.09 73.985 85.67zM70.465 80.538c-0.095-0.163-0.188-0.329-0.281-0.494 -0.026 0.018-0.055 0.037-0.079 0.054C70.224 80.245 70.348 80.393 70.465 80.538z" fill="url(#SvgjsRadialGradient6047)" opacity="1"></path><path id="SvgjsPath6050" d="M76.255 78.622c-0.034-0.004-0.066-0.01-0.1-0.014 -0.011 0.196-0.022 0.393-0.034 0.586C76.164 79.004 76.211 78.812 76.255 78.622zM76.12 79.193c-0.627 2.724-1.114 5.17-0.892 6.162C75.724 84.467 75.95 81.984 76.12 79.193zM75.229 85.356c-0.119 0.212-0.25 0.344-0.401 0.36 -0.15 0.014-0.306-0.091-0.464-0.276 -0.006 0.243-0.06 0.421-0.188 0.505 -0.128 0.083-0.313 0.063-0.539-0.03 0.107 0.219 0.143 0.403 0.069 0.536 -0.075 0.133-0.249 0.201-0.489 0.224 0.194 0.144 0.312 0.289 0.308 0.441 -0.003 0.152-0.126 0.292-0.327 0.428 0.24 0.034 0.41 0.111 0.478 0.247 0.067 0.136 0.025 0.318-0.091 0.532 0.229-0.081 0.414-0.093 0.537-0.003 0.123 0.088 0.17 0.27 0.164 0.514 0.166-0.177 0.325-0.278 0.478-0.253 0.148 0.02 0.274 0.16 0.382 0.379 0.064-0.236 0.16-0.396 0.306-0.447 0.143-0.051 0.318 0.014 0.515 0.157 -0.051-0.237-0.041-0.423 0.063-0.536s0.29-0.136 0.532-0.102c-0.157-0.187-0.238-0.356-0.195-0.504 0.039-0.148 0.192-0.255 0.423-0.336 -0.226-0.091-0.372-0.206-0.407-0.354 -0.032-0.149 0.053-0.316 0.218-0.495 -0.243 0.023-0.427-0.009-0.524-0.125 -0.099-0.115-0.102-0.303-0.039-0.538 -0.201 0.134-0.38 0.19-0.521 0.132C75.37 85.756 75.281 85.593 75.229 85.356zM76.033 85.683c0.852-0.558 2.206-2.65 3.652-5.04C77.865 82.76 76.298 84.699 76.033 85.683zM79.685 80.641c0.126-0.145 0.255-0.292 0.38-0.44 -0.027-0.019-0.052-0.04-0.078-0.06C79.886 80.31 79.785 80.477 79.685 80.641zM76.597 86.345c1.013-0.099 3.187-1.322 5.577-2.767C79.578 84.609 77.287 85.598 76.597 86.345zM82.173 83.579c0.165-0.065 0.333-0.131 0.501-0.195 -0.014-0.029-0.029-0.056-0.04-0.083C82.481 83.392 82.328 83.487 82.173 83.579zM76.783 87.194c0.943 0.382 3.437 0.309 6.227 0.142C80.231 87.042 77.745 86.853 76.783 87.194zM83.01 87.336c0.158 0.019 0.32 0.036 0.48 0.053 0.001-0.027 0.002-0.055 0.003-0.083C83.332 87.316 83.168 87.326 83.01 87.336zM76.558 88.033c0.655 0.78 2.898 1.871 5.442 3.017C79.679 89.499 77.565 88.177 76.558 88.033zM82 91.049c0.117 0.08 0.236 0.161 0.354 0.238 0.013-0.021 0.024-0.042 0.035-0.063C82.262 91.168 82.129 91.109 82 91.049zM75.964 88.67c0.221 0.993 1.699 3.004 3.419 5.205C78.048 91.419 76.791 89.266 75.964 88.67zM79.384 93.872c0.059 0.106 0.117 0.217 0.176 0.325 0.018-0.013 0.034-0.023 0.053-0.034C79.536 94.065 79.458 93.967 79.384 93.872zM75.146 88.96c-0.267 0.982 0.107 3.447 0.608 6.195C75.711 92.361 75.601 89.87 75.146 88.96zM75.754 95.155c0.002 0.11 0.004 0.224 0.004 0.337 0.021-0.003 0.038-0.005 0.058-0.005C75.796 95.376 75.775 95.264 75.754 95.155zM74.285 88.834c-0.693 0.748-1.508 3.102-2.341 5.769C73.205 92.11 74.265 89.853 74.285 88.834zM71.944 94.603c-0.05 0.096-0.099 0.195-0.147 0.295 0.017 0.008 0.032 0.013 0.051 0.021C71.879 94.815 71.913 94.707 71.944 94.603zM73.584 88.324c-0.964 0.338-2.779 2.048-4.756 4.021C71.104 90.724 73.091 89.215 73.584 88.324zM68.828 92.345c-0.095 0.067-0.194 0.138-0.29 0.206 0.014 0.016 0.027 0.028 0.041 0.045C68.661 92.511 68.746 92.428 68.828 92.345zM73.197 87.546c-1.01-0.148-3.409 0.521-6.078 1.349C69.889 88.518 72.345 88.106 73.197 87.546zM67.119 88.897c-0.131 0.018-0.265 0.034-0.4 0.054 0.005 0.021 0.011 0.042 0.018 0.063C66.865 88.977 66.993 88.936 67.119 88.897zM73.217 86.677c-0.824-0.599-3.263-1.121-6.01-1.627C69.833 86 72.202 86.777 73.217 86.677zM67.207 85.05c-0.143-0.052-0.29-0.106-0.432-0.158 -0.008 0.026-0.016 0.051-0.021 0.077C66.907 84.995 67.06 85.022 67.207 85.05zM73.637 85.917c-0.45-0.911-2.363-2.506-4.561-4.23C70.959 83.747 72.693 85.538 73.637 85.917zM69.076 81.688c-0.118-0.13-0.236-0.26-0.355-0.391 -0.021 0.022-0.041 0.044-0.061 0.065C68.8 81.471 68.941 81.58 69.076 81.688zM74.363 85.44c0.024-1.017-0.93-3.321-2.073-5.868C72.999 82.273 73.704 84.663 74.363 85.44zM72.29 79.572c-0.049-0.182-0.096-0.366-0.144-0.55 -0.029 0.01-0.062 0.021-0.09 0.032C72.134 79.227 72.214 79.401 72.29 79.572z" fill="url(#SvgjsRadialGradient6051)" opacity="1"></path><path id="SvgjsPath6054" d="M78.334 87c0 1.842-1.492 3.333-3.333 3.333S71.666 88.841 71.666 87c0-1.841 1.494-3.334 3.335-3.334C76.844 83.666 78.334 85.159 78.334 87z" fill="#4e60a3" stroke-width="none" opacity="1"></path><path id="SvgjsPath6055" d="M78.334 87c0 1.842-1.492 3.333-3.333 3.333S71.666 88.841 71.666 87c0-1.841 1.494-3.334 3.335-3.334C76.844 83.666 78.334 85.159 78.334 87z" fill="#000000" stroke-width="none" opacity="0.9"></path><path id="SvgjsPath6056" d="M70.35 90.893c0.636-0.427 1.5-0.255 1.927 0.38 0.427 0.637 0.258 1.5-0.379 1.927 -0.638 0.429-1.5 0.258-1.927-0.378C69.544 92.185 69.713 91.32 70.35 90.893L70.35 90.893z" fill="url(#SvgjsLinearGradient6057)" opacity="0.5"></path><path id="SvgjsPath6060" d="M77.635 86.536c-0.356 0.53-1.373 0.468-2.275-0.136 -0.903-0.605-1.346-1.526-0.991-2.055l0.001-0.001c0.354-0.53 1.372-0.469 2.274 0.137 0.903 0.604 1.346 1.524 0.992 2.054C77.635 86.536 77.635 86.536 77.635 86.536z" fill="url(#SvgjsLinearGradient6061)" opacity="0.5"></path><path id="SvgjsPath6064" d="M81.682 85.121c-0.806 1.237-2.884 1.31-4.641 0.166 -1.756-1.145-2.527-3.075-1.722-4.311 0.806-1.235 2.884-1.31 4.641-0.166C81.715 81.956 82.485 83.887 81.682 85.121L81.682 85.121z" fill="url(#SvgjsLinearGradient6065)" opacity="0.75"></path></g></g></g><g id="svga-group-eyesfront-left"><path id="SvgjsPath6181" d="M55 89c0 13.808 8.507 24.999 19 24.999S93 102.808 93 89c0-13.809-8.507-25.001-19-25.001S55 75.191 55 89zM61.517 94.721c-0.984-1.617-1.528-3.528-1.518-5.667 5.02-12.787 18.86-16.378 26.661-4.822 0.748 1.472 1.181 3.05 1.181 4.654 0 3.108-1.716 5.337-3.133 6.88C77.772 102.061 66.985 101.729 61.517 94.721z" fill="#ecc4b8" stroke-width="none" opacity="1" stroke="none"></path><path id="SvgjsPath6182" d="M57.063 86.713c0.814 9.341 9.499 16.142 19.41 15.198 9.908-0.95 17.284-9.286 16.465-18.625 -0.814-9.342-9.5-16.145-19.412-15.199C63.615 69.038 56.243 77.374 57.063 86.713zM59.999 89.054c5.02-12.787 18.86-16.378 26.661-4.822 0.748 1.472 1.181 3.05 1.181 4.654 0 3.108-1.716 5.337-3.133 6.88 -6.936 6.296-17.723 5.964-23.191-1.044C60.532 93.104 59.988 91.193 59.999 89.054z" fill="url(#SvgjsRadialGradient6183)" opacity="1"></path><path id="SvgjsPath6187" d="M81.835 79.36c1.751 1.137 3.391 2.746 4.825 4.871 0.748 1.472 1.181 3.05 1.181 4.654 0 3.108-1.716 5.337-3.133 6.88 -6.936 6.296-17.723 5.964-23.191-1.044 -0.984-1.617-1.528-3.528-1.518-5.667 2.306-5.874 6.475-9.8 11.063-11.216 0.492-0.123 0.994-0.221 1.506-0.293C75.914 77.071 79.118 77.794 81.835 79.36z" fill="url(#SvgjsRadialGradient6188)" opacity="1"></path><path id="SvgjsPath6191" d="M85.831 76.642c-5.97-3.487-13.357-4.669-21.869-0.887C70.286 72.031 79.389 71.736 85.831 76.642z" fill="#be725b" stroke-width="none" opacity="1" stroke="none"></path><path id="SvgjsPath6192" d="M61.42 94.437c5.438 6.916 16.313 7.27 23.288 1.123C76.492 104.249 62.78 99.934 61.42 94.437zM89.378 80.015c-6.384-8.038-22.106-6.856-30.795-0.861 2.103-0.601 3.804-1.189 6.62-2.33 -5.615 2.601-5.615 4.669-10.263 9.476l2.246-1.852 -1.182 3.369c1.184-1.713 1.863-2.423 2.638-3.015 -0.296 1.064-0.473 1.714-0.709 3.015 1.58-2.138 2.498-3.246 3.724-4.197 -1.403 1.989-1.822 3.855-2.01 6.325 4.965-13.89 20.687-17.496 28.312-3.487 -0.464-2.242-1.42-3.989-2.482-5.556 1.747 0.8 3.175 2.443 4.492 4.965 -1.063-4.314-1.714-5.438-5.379-8.275L89.378 80.015z" fill="#582311" stroke-width="none" opacity="1" stroke="none"></path></g></g><g id="svga-group-eyes-right" ><g id="svga-group-eyesback-right"><path id="SvgjsPath6164" d="M113.34 84.231c-0.748 1.472-1.181 3.05-1.181 4.654 0 3.108 1.716 5.337 3.133 6.88 6.936 6.296 17.723 5.964 23.191-1.044 0.984-1.617 1.528-3.528 1.518-5.667C134.981 76.267 121.141 72.676 113.34 84.231z" fill="url(#SvgjsRadialGradient6165)" opacity="1"></path></g><g id="svga-group-eyesiriswrapper-right" transform="translate(0 1)"><g id="svga-group-eyesiriscontrol-right" ><g id="svga-group-eyesiris-right" ><path id="SvgjsPath6068" d="M133.5 87c0 4.694-3.806 8.5-8.499 8.5 -4.694 0-8.501-3.806-8.501-8.5l0 0c0-4.694 3.807-8.5 8.501-8.5C129.694 78.499 133.5 82.305 133.5 87L133.5 87z" fill="#4e60a3" stroke-width="none" opacity="1"></path><path id="SvgjsPath6069" d="M124.048 78.595c-0.033 0.004-0.066 0.008-0.101 0.012 0.041 0.191 0.081 0.384 0.12 0.575C124.06 78.987 124.055 78.789 124.048 78.595zM124.066 79.18c0.099 2.793 0.262 5.282 0.732 6.183C125.047 84.377 124.625 81.92 124.066 79.18zM124.8 85.365c-0.061 0.236-0.153 0.397-0.294 0.452 -0.142 0.053-0.319-0.008-0.521-0.146 0.058 0.236 0.052 0.422-0.051 0.537 -0.102 0.114-0.285 0.142-0.527 0.11 0.16 0.184 0.242 0.353 0.206 0.5 -0.039 0.148-0.189 0.258-0.415 0.343 0.225 0.088 0.376 0.199 0.411 0.347 0.036 0.148-0.046 0.315-0.205 0.498 0.241-0.029 0.426 0.001 0.525 0.115 0.101 0.114 0.106 0.301 0.05 0.537 0.199-0.137 0.376-0.197 0.518-0.142 0.143 0.053 0.234 0.216 0.291 0.454 0.114-0.215 0.243-0.353 0.396-0.368 0.148-0.02 0.307 0.084 0.466 0.267 0.002-0.244 0.053-0.423 0.181-0.51 0.124-0.086 0.311-0.069 0.537 0.018 -0.11-0.216-0.148-0.398-0.078-0.534 0.071-0.135 0.245-0.207 0.487-0.235 -0.199-0.14-0.321-0.283-0.318-0.436 -0.001-0.153 0.119-0.296 0.321-0.434 -0.241-0.03-0.412-0.103-0.484-0.237 -0.07-0.135-0.031-0.319 0.081-0.535 -0.229 0.085-0.413 0.102-0.538 0.016 -0.126-0.086-0.177-0.267-0.178-0.51 -0.158 0.182-0.316 0.282-0.468 0.262C125.041 85.714 124.911 85.58 124.8 85.365zM125.66 85.471c0.679-0.758 1.446-3.13 2.224-5.813C126.674 82.174 125.662 84.453 125.66 85.471zM127.883 79.657c0.085-0.172 0.172-0.348 0.253-0.524 -0.03-0.011-0.06-0.024-0.09-0.037C127.992 79.284 127.938 79.472 127.883 79.657zM126.377 85.965c0.953-0.357 2.736-2.101 4.671-4.115C128.808 83.517 126.851 85.065 126.377 85.965zM131.048 81.851c0.142-0.106 0.287-0.213 0.433-0.318 -0.021-0.025-0.043-0.047-0.06-0.07C131.297 81.59 131.174 81.722 131.048 81.851zM126.777 86.738c1.01 0.125 3.399-0.591 6.052-1.475C130.068 85.698 127.617 86.159 126.777 86.738zM132.829 85.263c0.156-0.022 0.318-0.048 0.478-0.073 -0.007-0.026-0.013-0.054-0.02-0.081C133.135 85.16 132.979 85.212 132.829 85.263zM126.775 87.606c0.836 0.583 3.284 1.057 6.038 1.505C130.171 88.214 127.786 87.484 126.775 87.606zM132.813 89.111c0.135 0.047 0.271 0.095 0.404 0.138 0.007-0.024 0.013-0.047 0.018-0.071C133.098 89.158 132.954 89.135 132.813 89.111zM126.367 88.375c0.471 0.902 2.42 2.462 4.649 4.142C129.092 90.492 127.32 88.737 126.367 88.375zM131.018 92.514c0.083 0.087 0.17 0.179 0.253 0.268 0.014-0.017 0.027-0.031 0.043-0.046C131.215 92.662 131.113 92.587 131.018 92.514zM125.652 88.867c-0.004 1.019 0.995 3.302 2.191 5.827C127.079 92.006 126.327 89.628 125.652 88.867zM127.844 94.694c0.03 0.106 0.062 0.215 0.09 0.324 0.021-0.008 0.036-0.015 0.055-0.02C127.941 94.896 127.892 94.793 127.844 94.694zM124.788 88.968c-0.476 0.902-0.653 3.386-0.768 6.178C124.594 92.413 125.031 89.958 124.788 88.968zM124.021 95.146c-0.023 0.106-0.044 0.214-0.066 0.323 0.02 0.004 0.035 0.005 0.055 0.007C124.013 95.368 124.018 95.254 124.021 95.146zM123.979 88.657c-0.844 0.576-2.154 2.697-3.553 5.114C122.204 91.617 123.733 89.645 123.979 88.657zM120.427 93.771c-0.074 0.09-0.152 0.185-0.229 0.274 0.018 0.012 0.034 0.02 0.053 0.034C120.309 93.976 120.369 93.873 120.427 93.771zM123.405 88.006c-1.015 0.119-3.16 1.385-5.522 2.875C120.46 89.801 122.726 88.768 123.405 88.006zM117.883 90.884c-0.122 0.051-0.247 0.102-0.372 0.156 0.009 0.019 0.021 0.038 0.033 0.057C117.658 91.027 117.771 90.954 117.883 90.884zM123.198 87.161c-0.951-0.365-3.441-0.238-6.227-0.016C119.755 87.383 122.244 87.521 123.198 87.161zM116.972 87.145c-0.151-0.014-0.308-0.028-0.457-0.041 -0.001 0.027-0.003 0.053-0.001 0.08C116.669 87.169 116.822 87.156 116.972 87.145zM123.407 86.318c-0.67-0.763-2.932-1.809-5.499-2.905C120.259 84.915 122.397 86.196 123.407 86.318zM117.908 83.413c-0.147-0.095-0.297-0.189-0.446-0.285 -0.013 0.026-0.026 0.053-0.041 0.078C117.585 83.276 117.75 83.344 117.908 83.413zM123.985 85.67c-0.239-0.989-1.758-2.967-3.521-5.132C121.849 82.963 123.147 85.09 123.985 85.67zM120.465 80.538c-0.095-0.163-0.188-0.329-0.281-0.494 -0.026 0.018-0.055 0.037-0.079 0.054C120.224 80.245 120.348 80.393 120.465 80.538z" fill="url(#SvgjsRadialGradient6070)" opacity="1"></path><path id="SvgjsPath6073" d="M126.255 78.622c-0.034-0.004-0.066-0.01-0.1-0.014 -0.011 0.196-0.022 0.393-0.034 0.586C126.164 79.004 126.211 78.812 126.255 78.622zM126.12 79.193c-0.627 2.724-1.114 5.17-0.892 6.162C125.724 84.467 125.95 81.984 126.12 79.193zM125.229 85.356c-0.119 0.212-0.25 0.344-0.401 0.36 -0.15 0.014-0.306-0.091-0.464-0.276 -0.006 0.243-0.06 0.421-0.188 0.505 -0.128 0.083-0.313 0.063-0.539-0.03 0.107 0.219 0.143 0.403 0.069 0.536 -0.075 0.133-0.249 0.201-0.489 0.224 0.194 0.144 0.312 0.289 0.308 0.441 -0.003 0.152-0.126 0.292-0.327 0.428 0.24 0.034 0.41 0.111 0.478 0.247 0.067 0.136 0.025 0.318-0.091 0.532 0.229-0.081 0.414-0.093 0.537-0.003 0.123 0.088 0.17 0.27 0.164 0.514 0.166-0.177 0.325-0.278 0.478-0.253 0.148 0.02 0.274 0.16 0.382 0.379 0.064-0.236 0.16-0.396 0.306-0.447 0.143-0.051 0.318 0.014 0.515 0.157 -0.051-0.237-0.041-0.423 0.063-0.536s0.29-0.136 0.532-0.102c-0.157-0.187-0.238-0.356-0.195-0.504 0.039-0.148 0.192-0.255 0.423-0.336 -0.226-0.091-0.372-0.206-0.407-0.354 -0.032-0.149 0.053-0.316 0.218-0.495 -0.243 0.023-0.427-0.009-0.524-0.125 -0.099-0.115-0.102-0.303-0.039-0.538 -0.201 0.134-0.38 0.19-0.521 0.132C125.37 85.756 125.281 85.593 125.229 85.356zM126.033 85.683c0.852-0.558 2.206-2.65 3.652-5.04C127.865 82.76 126.298 84.699 126.033 85.683zM129.685 80.641c0.126-0.145 0.255-0.292 0.38-0.44 -0.027-0.019-0.052-0.04-0.078-0.06C129.886 80.31 129.785 80.477 129.685 80.641zM126.597 86.345c1.013-0.099 3.187-1.322 5.577-2.767C129.578 84.609 127.287 85.598 126.597 86.345zM132.173 83.579c0.165-0.065 0.333-0.131 0.501-0.195 -0.014-0.029-0.029-0.056-0.04-0.083C132.481 83.392 132.328 83.487 132.173 83.579zM126.783 87.194c0.943 0.382 3.437 0.309 6.227 0.142C130.231 87.042 127.745 86.853 126.783 87.194zM133.01 87.336c0.158 0.019 0.32 0.036 0.48 0.053 0.001-0.027 0.002-0.055 0.003-0.083C133.332 87.316 133.168 87.326 133.01 87.336zM126.558 88.033c0.655 0.78 2.898 1.871 5.442 3.017C129.679 89.499 127.565 88.177 126.558 88.033zM132 91.049c0.117 0.08 0.236 0.161 0.354 0.238 0.013-0.021 0.024-0.042 0.035-0.063C132.262 91.168 132.129 91.109 132 91.049zM125.964 88.67c0.221 0.993 1.699 3.004 3.419 5.205C128.048 91.419 126.791 89.266 125.964 88.67zM129.384 93.872c0.059 0.106 0.117 0.217 0.176 0.325 0.018-0.013 0.034-0.023 0.053-0.034C129.536 94.065 129.458 93.967 129.384 93.872zM125.146 88.96c-0.267 0.982 0.107 3.447 0.608 6.195C125.711 92.361 125.601 89.87 125.146 88.96zM125.754 95.155c0.002 0.11 0.004 0.224 0.004 0.337 0.021-0.003 0.038-0.005 0.058-0.005C125.796 95.376 125.775 95.264 125.754 95.155zM124.285 88.834c-0.693 0.748-1.508 3.102-2.341 5.769C123.205 92.11 124.265 89.853 124.285 88.834zM121.944 94.603c-0.05 0.096-0.099 0.195-0.147 0.295 0.017 0.008 0.032 0.013 0.051 0.021C121.879 94.815 121.913 94.707 121.944 94.603zM123.584 88.324c-0.964 0.338-2.779 2.048-4.756 4.021C121.104 90.724 123.091 89.215 123.584 88.324zM118.828 92.345c-0.095 0.067-0.194 0.138-0.29 0.206 0.014 0.016 0.027 0.028 0.041 0.045C118.661 92.511 118.746 92.428 118.828 92.345zM123.197 87.546c-1.01-0.148-3.409 0.521-6.078 1.349C119.889 88.518 122.345 88.106 123.197 87.546zM117.119 88.897c-0.131 0.018-0.265 0.034-0.4 0.054 0.005 0.021 0.011 0.042 0.018 0.063C116.865 88.977 116.993 88.936 117.119 88.897zM123.217 86.677c-0.824-0.599-3.263-1.121-6.01-1.627C119.833 86 122.202 86.777 123.217 86.677zM117.207 85.05c-0.143-0.052-0.29-0.106-0.432-0.158 -0.008 0.026-0.016 0.051-0.021 0.077C116.907 84.995 117.06 85.022 117.207 85.05zM123.637 85.917c-0.45-0.911-2.363-2.506-4.561-4.23C120.959 83.747 122.693 85.538 123.637 85.917zM119.076 81.688c-0.118-0.13-0.236-0.26-0.355-0.391 -0.021 0.022-0.041 0.044-0.061 0.065C118.8 81.471 118.941 81.58 119.076 81.688zM124.363 85.44c0.024-1.017-0.93-3.321-2.073-5.868C122.999 82.273 123.704 84.663 124.363 85.44zM122.29 79.572c-0.049-0.182-0.096-0.366-0.144-0.55 -0.029 0.01-0.062 0.021-0.09 0.032C122.134 79.227 122.214 79.401 122.29 79.572z" fill="url(#SvgjsRadialGradient6074)" opacity="1"></path><path id="SvgjsPath6077" d="M128.334 87c0 1.842-1.492 3.333-3.333 3.333s-3.335-1.492-3.335-3.333c0-1.841 1.494-3.334 3.335-3.334C126.844 83.666 128.334 85.159 128.334 87z" fill="#4e60a3" stroke-width="none" opacity="1"></path><path id="SvgjsPath6078" d="M128.334 87c0 1.842-1.492 3.333-3.333 3.333s-3.335-1.492-3.335-3.333c0-1.841 1.494-3.334 3.335-3.334C126.844 83.666 128.334 85.159 128.334 87z" fill="#000000" stroke-width="none" opacity="0.9"></path><path id="SvgjsPath6079" d="M120.35 90.893c0.636-0.427 1.5-0.255 1.927 0.38 0.427 0.637 0.258 1.5-0.379 1.927 -0.638 0.429-1.5 0.258-1.927-0.378C119.544 92.185 119.713 91.32 120.35 90.893L120.35 90.893z" fill="url(#SvgjsLinearGradient6080)" opacity="0.5"></path><path id="SvgjsPath6083" d="M127.635 86.536c-0.356 0.53-1.373 0.468-2.275-0.136 -0.903-0.605-1.346-1.526-0.991-2.055l0.001-0.001c0.354-0.53 1.372-0.469 2.274 0.137 0.903 0.604 1.346 1.524 0.992 2.054C127.635 86.536 127.635 86.536 127.635 86.536z" fill="url(#SvgjsLinearGradient6084)" opacity="0.5"></path><path id="SvgjsPath6087" d="M131.682 85.121c-0.806 1.237-2.884 1.31-4.641 0.166 -1.756-1.145-2.527-3.075-1.722-4.311 0.806-1.235 2.884-1.31 4.641-0.166C131.715 81.956 132.485 83.887 131.682 85.121L131.682 85.121z" fill="url(#SvgjsLinearGradient6088)" opacity="0.75"></path></g></g></g><g id="svga-group-eyesfront-right"><path id="SvgjsPath6202" d="M126 63.999c-10.493 0-19 11.192-19 25.001 0 13.808 8.507 24.999 19 24.999S145 102.808 145 89C145 75.191 136.493 63.999 126 63.999zM115.292 95.765c-1.417-1.542-3.133-3.771-3.133-6.88 0-1.604 0.433-3.182 1.181-4.654 7.801-11.556 21.642-7.964 26.661 4.822 0.011 2.139-0.533 4.05-1.518 5.667C133.015 101.729 122.228 102.061 115.292 95.765z" fill="#ecc4b8" stroke-width="none" opacity="1" stroke="none"></path><path id="SvgjsPath6203" d="M126.475 68.087c-9.912-0.946-18.598 5.857-19.412 15.199 -0.819 9.339 6.557 17.676 16.465 18.625 9.911 0.944 18.596-5.857 19.41-15.198C143.757 77.374 136.385 69.038 126.475 68.087zM138.483 94.721c-5.469 7.008-16.256 7.34-23.191 1.044 -1.417-1.542-3.133-3.771-3.133-6.88 0-1.604 0.433-3.182 1.181-4.654 7.801-11.556 21.642-7.964 26.661 4.822C140.012 91.193 139.468 93.104 138.483 94.721z" fill="url(#SvgjsRadialGradient6204)" opacity="1"></path><path id="SvgjsPath6208" d="M118.165 79.36c-1.751 1.137-3.391 2.746-4.825 4.871 -0.748 1.472-1.181 3.05-1.181 4.654 0 3.108 1.716 5.337 3.133 6.88 6.936 6.296 17.723 5.964 23.191-1.044 0.984-1.617 1.528-3.528 1.518-5.667 -2.306-5.874-6.475-9.8-11.063-11.216 -0.492-0.123-0.994-0.221-1.506-0.293C124.086 77.071 120.882 77.794 118.165 79.36z" fill="url(#SvgjsRadialGradient6209)" opacity="1"></path><path id="SvgjsPath6212" d="M114.169 76.642c5.97-3.487 13.357-4.669 21.869-0.887C129.714 72.031 120.611 71.736 114.169 76.642z" fill="#be725b" stroke-width="none" opacity="1" stroke="none"></path><path id="SvgjsPath6213" d="M115.292 95.56c6.975 6.147 17.85 5.792 23.288-1.123C137.22 99.934 123.508 104.249 115.292 95.56zM115.41 77.592c-3.665 2.837-4.315 3.96-5.379 8.275 1.317-2.522 2.745-4.165 4.492-4.965 -1.063 1.567-2.019 3.314-2.482 5.556 7.625-14.008 23.347-10.403 28.312 3.487 -0.188-2.47-0.606-4.335-2.01-6.325 1.226 0.951 2.144 2.059 3.724 4.197 -0.236-1.3-0.413-1.951-0.709-3.015 0.774 0.591 1.454 1.302 2.638 3.015l-1.182-3.369 2.246 1.852c-4.647-4.807-4.647-6.875-10.263-9.476 2.816 1.141 4.518 1.729 6.62 2.33 -8.688-5.995-24.411-7.177-30.795 0.861L115.41 77.592z" fill="#582311" stroke-width="none" opacity="1" stroke="none"></path></g></g><g id="svga-group-facehighlight-single" ><path id="SvgjsPath5961" d="M140.204 113.007c0.035 22.275-17.995 40.365-40.273 40.396 -22.274 0.036-40.361-17.993-40.396-40.272C59.501 90.857 77.53 72.77 99.808 72.735 122.083 72.701 140.171 90.73 140.204 113.007z" fill="url(#SvgjsRadialGradient5962)" opacity="1"></path><path id="SvgjsPath5965" d="M135,55.999c0,19.329-15.671,35-35,35c-19.329,0-35-15.671-35-35s15.671-35,35-35C119.329,20.999,135,36.67,135,55.999z" fill="url(#SvgjsRadialGradient5966)" opacity="1"></path></g><g id="svga-group-eyebrows-left" ><path id="SvgjsPath6214" d="M90.857 72.446c-12.948-4.229-18.875-4.225-33.252-2.519 -0.434 0.051-2.459 0.548-2.637 0.221 11.896-2.694 21.942-3.566 33.164 0.925C88.531 71.233 90.911 72.118 90.857 72.446z" fill="#73625b" stroke-width="none" opacity="1" stroke="none"></path></g><g id="svga-group-eyebrows-right" ><path id="SvgjsPath6215" d="M108.978 72.414c9.882-6.264 21.947-6.458 33.14-3.238 0.444 0.128 2.899 0.624 2.915 1.026C120.586 64.812 108.978 72.414 108.978 72.414z" fill="#73625b" stroke-width="none" opacity="1" stroke="none"></path></g><g id="svga-group-nose-single" ><path id="SvgjsPath6222" d="M97.363 92.602c0 0 0.055 7.962-0.458 9.512 -1.129 3.405-6.123 11.297-5.49 13.486 0.985 3.403 5.817 3.652 8.259 3.771 2.338 0.115 7.091-0.055 7.857-2.267 0.312-0.9-0.361-3.197-0.361-3.197s-2.165 2.228-7.266 1.98c-1.456-0.07-3.824-1.5-3.851-3.517 -0.036-2.734 1.805-5.87 2.135-8.583C98.438 101.726 97.363 92.602 97.363 92.602z" fill="#dda696" stroke-width="none" opacity="1" stroke="none"></path><path id="SvgjsPath6223" d="M104.209 117.032c0.881 0 1.119 0.234 1.119 0.522 0 0.29-0.274 0.735-1.119 0.522 -0.928-0.231-2.548-0.124-2.548-0.124S103.328 117.032 104.209 117.032zM95.8 117.032c-0.881 0.001-1.119 0.236-1.119 0.525 0 0.288 0.265 0.704 1.119 0.521 0.941-0.201 2.548-0.125 2.548-0.125S96.682 117.035 95.8 117.032zM107.169 113.906c0 0 1.22 1.384 0.966 2.847 -0.246 1.421-2.709 2.047-2.709 2.047s1.71-1.085 1.917-2.403C107.439 115.781 107.169 113.906 107.169 113.906zM92.12 112.482c0 0-0.89 1.938-0.632 3.117 0.467 2.13 3.032 2.982 3.032 2.982s-1.601-1.462-2.17-2.753C91.729 114.42 92.12 112.482 92.12 112.482z" fill="#be725b" stroke-width="none" opacity="1" stroke="none"></path><path id="SvgjsPath6224" d="M104.166 114.937c0.854-0.637 0.939-1 0.763-1.237 -0.176-0.238-0.688-0.389-1.403 0.379 -0.788 0.846-2.502 1.47-2.502 1.47S103.312 115.574 104.166 114.937z" fill="#fbe4dd" stroke-width="none" opacity="1" stroke="none"></path></g><g id="svga-group-hair-front" ><path id="SvgjsPath6134" d="M146.93 34.899H51.19l2.047 63.665c0.413-1.002 6.167-11.347 6.883-9.885 27.017-13.333 35.79-30.203 41.162-43.761 -8.006 33.653-27.315 38.394-27.315 38.394 4.23-0.47 16.372-1.724 24.386-10.048 1.049-1.109 9.917-7.806 17.639-28.686 1.598 17.179 9.102 35.856 21.778 43.817 -4.244-8.364-9.812-29.919-10.834-45.113 7.041 34.369 14.163 52.434 20.596 64.606 2.186 4.135 6.498 11.445 5.991 11.344C155.064 127.09 146.93 34.899 146.93 34.899z" fill="#73625b" stroke-width="none" opacity="0.1" stroke="none"></path><path id="SvgjsPath6135" d="M123.977 2.768c-3.083-1.172-5.286-2.017-8.009-2.746 -0.046-1-52.547-15.95-79.211 46.22C30 65.827 26.418 96.013 32.644 115.821c1.439 4.387 5.438 10.615 9.24 31.491 1.83 10.049 3.275 17.985 14.18 29.005 2.863 2.896 10.198 8.648 11.516 13.763 4.04-22.237-3.639-28.484-10.942-34.448 -5.008-4.09-9.886-5.026 3.084-1.95 0 0 2.742-0.172 8.082-3.547 -8.452 1.78-14.496-1.088-18.395-7.845 -5.153-8.931-5.126-22.432 0.063-31.404 5.211 2.94 4.943 17.158 5.213 18.975 2.336-7.38-1.068-29.004-1.447-31.296 -0.086-1.031 1.344-4.568 1.344-4.568 0.413-1.002 4.823-9.035 5.539-7.572 27.017-13.333 35.79-30.203 41.162-43.761 -8.006 33.653-26.338 40.13-26.338 40.13 4.23-0.47 15.395-3.46 23.408-11.784 1.049-1.109 10.575-11.543 18.297-32.423 1.598 17.179 9.354 36.563 19.454 48.129 -4.244-8.364-8.146-30.494-9.168-45.688 7.041 34.369 15.773 50.895 22.206 63.066 2.186 4.135 4.633 11.112 4.126 11.011 1.542 7.857-1.689 25.994-16.881 30.317 2.979 0.559 5.525 0.628 7.732 0.33 -16.469 16.26-7.259 25.821-4.188 43.015 0.856-3.048 0.825-6.172 5.466-12.909 8.701-12.646 1.984-12.887 12.664-33.732 11.454-22.361 10.121-31.09 11.148-37.028C169.358 104.3 175.752 22.291 123.977 2.768z" fill="#73625b" stroke-width="none" opacity="1" stroke="none"></path><path id="SvgjsPath6136" d="M67.764 188.989c0.423-2.594 0.691-4.943 0.835-7.097C68.471 184.053 68.198 186.411 67.764 188.989zM74 74c12.458-18.076 20-31 24-50 -9.526 21.91-26.401 39.19-40.852 57.299 -0.179-4.145 0.471-27.813 19.151-56.07C53.909 45.714 44.072 74.808 50 92.329c-4.381-9.265-7.631-27.423-4.534-39.992C32.93 82.071 50.324 95.5 55.201 114.308c-1.344-18.182-3.149-14.727-0.619-20.983 0.353-0.856 2.804-5.552 2.941-4.476 1.148-1.746 2.267-3.1 2.597-2.425 27.017-13.333 35.79-30.203 41.162-43.761 -8.006 33.653-26.338 40.13-26.338 40.13 12.432-1.38 32.048-22.872 29.337-54.052C99.279 46.741 86.458 62.405 74 74zM167.643 69.768C168.346 85.58 166.535 100.791 164 116c-2-14-5.646-30.432-12.166-48.964 5.535 25.6 4.855 34.796 5.16 44.698 -13.146-28.627-26.344-53.284-31.411-82.828C124.631 39.739 127.384 55.924 129 68c-4.369-9.761-9.298-21.428-11.084-39.259 0 3.435-0.399 5.222-1.558 9.477 1.731 17.014 9.773 37.078 19.745 48.497 -4.244-8.364-8.146-30.494-9.168-45.688 7.041 34.369 15.773 50.895 22.206 63.066 1.876 3.549 3.938 9.179 4.167 10.643 0.038 0.242 0.031 0.383-0.041 0.368 0.158 0.808 0.264 1.729 0.313 2.728 1.77 4.593 2.528 7.402 1.474 10.785 -1.525 4.895-9.049 15.63-18.668 16.805 8.743 2.063 14.341-2.79 18.97-8.827 -6.923 15.946-21.127 8.797-15.486 51.65 0.701-2.468 1.708-6.844 5.527-12.388 8.701-12.646 1.984-12.887 12.664-33.732 11.454-22.361 10.121-31.09 11.148-37.028C169.274 104.75 170.52 89.027 167.643 69.768zM44.483 143.565c2.989 1.909 6.538 10.618 16.535 9.841C41.105 148.271 42 120.18 42 103c-1.471 4.902-2.685 10.05-3.438 15.315 -11.3-30.764-4.969-64.11 9.831-92.716 -4.203 5.701-8.144 12.5-11.637 20.643 -16.692 48.389-0.499 78.419 0.992 83.356 6.717 22.247 2.683 30.923 18.315 46.719 2.863 2.896 10.198 8.648 11.516 13.763C71.369 164.985 48.613 158.099 44.483 143.565zM142.95 25.75c15.545 14.046 21.195 45.833 21.328 69.442C164.39 100.162 164.413 46.131 142.95 25.75zM154.875 82.765c3.342 20.038-2.521-42.627-24.576-58.441C143.508 35.305 152.316 67.792 154.875 82.765zM70.88 22.753c5.942-4.945-2.793 2-5.802 4.808C54.54 37.09 50.033 46.996 47.94 57.751 51.505 42.729 59.444 32.739 70.88 22.753zM84.705 24.485c2.822-2.594-13.942 8.265-22.912 41.27C68.529 45.157 77.302 31.847 84.705 24.485z" fill="#644e45" stroke-width="none" opacity="1" stroke="none"></path><path id="SvgjsPath6137" d="M151.671 107.902c17.19 26.816 3.447 35.355 1.861 40.974C155.307 142.587 164.622 133.223 151.671 107.902zM163.42 128.026c0.103-1 3.263-9.188 0.12-24.545 -1.706-8.337-4.72-16.315-6.759-24.558C160.708 97.38 165.319 109.35 163.42 128.026zM40.778 139.904c0.025-1.461-5.489-18.724 2.449-40.017C31.997 123.286 40.828 137.053 40.778 139.904zM47.054 108.148c-0.2-0.831-0.822-1.722-1.174-2.497 -13.39-29.399-4.231-52.055 7.184-80.645C37.802 57.778 30.55 77.146 47.054 108.148zM76.707 21.78c0.036-0.038 3.867-3.963 3.917-3.95 -0.095-0.025-0.761 0.712-0.836 0.781C58.372 38.149 45.057 58.889 48.989 87.389 46.38 61.056 58.712 40.895 76.707 21.78zM99.998 17.774c-3.237 8.17-26.894 43.475-42.375 62.038C83.633 50.897 99.614 20.587 99.998 17.774zM82.755 80.445c-0.234 0.139-2.196 1.563-2.301 1.506 0.045 0.024 1.552-0.942 1.671-1.005 26.81-14.112 29.966-31.518 36.614-59.983C111.34 47.604 106.258 66.473 82.755 80.445zM155.396 106.15c-4.141-9.261-29.368-64.249-29.976-80.447C125.997 52.586 154.947 105.149 155.396 106.15zM148.657 74.301c0.361 1.587 0.849 3.182 1.121 4.785 -3.42-20.115-5.357-34.698-17.969-50.635C140.228 39.304 143.225 50.447 148.657 74.301zM136.445 21.347c0 0.068-0.079 0.248-0.18 0.171 16.048 12.281 24.425 58.902 24.777 59.902 -1.188-3.375 0.299-28.648-19.299-53.957 -1.58-2.04-3.319-4.493-5.468-5.976 0.061 0.017 0.187-0.063 0.143-0.136 0.066 0.106 0.143 0.201 0.221 0.3C136.731 21.704 136.445 21.53 136.445 21.347z" fill="#827874" stroke-width="none" opacity="1" stroke="none"></path><path id="SvgjsPath6138" d="M152.811 150.46c-5.664 16.369-6.497 17.491-6.497 17.491C145.881 168.951 149.452 157.542 152.811 150.46zM145.609 171.244c-0.081 0.287-0.612 2.203-0.539 1.967 1.925-5.472 3.814-6.661 5.754-14.988C148.631 165.023 148.427 163.099 145.609 171.244zM146.069 171.593c-3.171 4.709-3.991 7.679-3.865 7.369 0.093-0.278 0.782-1.668 1.515-2.844 1.649-2.668 3.643-4.701 5.109-9.896C148.427 167.289 147.835 169.096 146.069 171.593zM50.233 166.038c3.835 4.714-0.635 0.469-6.922-14.783C45.74 159.453 47.645 162.625 50.233 166.038zM55.452 171.15c-1.002-0.743-7.178-6.813-9.562-11.396C49.341 167.897 56.454 171.917 55.452 171.15zM52.553 170.327c10.604 9.982-2.789-2.537-3.953-4.89C48.6 165.438 48.617 166.515 52.553 170.327z" fill="#73625b" stroke-width="none" opacity="1" stroke="none"></path><path id="SvgjsPath6139" d="M167.879 61.476c-12.103-57.797-52.05-61.709-49.288-60.534C82.706-11.776 39.498 11.482 30.849 62.735c-2.427 14.398-3.457 40.922 0.152 51.061 2.023 5.684 3.274 8.689 5.778 15.28 7.917 21.966-0.744 33.347 24.319 52.629 3.111 2.404 5.166 5.576 6.57 9.28 0.011-0.021 0.206-1.185 0.21-1.21 3.034-17.218 1.952-26.859-14.556-37.602 4.582 2.664 10.785 1.913 14.707-2.328 -18.17 5.154-26.956-19.264-18.035-37.71 3.31 7.742 4.615 15.037 4.415 19.26 3.667-11.231 1.363-15.783-0.26-36.23 1.382-3.195 3.084-5.784 5.23-8.52 18.811-9.406 32.957-18.133 42.583-45.857 -2.319 7.76-3.984 15.355-10.583 25.527 -8.651 13.359-12.577 13.816-17.96 16.7 4.453 0 10.501-1.322 18.886-6.369 -1.375 1.17-2.601 2.299-5.326 4.209 13.693-8.82 23.971-21.423 29.379-42.638 -3.583 16.868-5.419 32.085-22.899 41.488 17.491-8.862 20.781-21.575 23.227-41.07 1.759 30.597 16.143 46.195 21.084 49.76 -6.279-10.305-9.001-34.624-11.224-50.274 2.413 14.985 1.465 10.331 5.243 24.954 6.901 26.356 15.578 41.213 20.585 51.722 2.062 14.443-4.134 27.799-17.385 30.438 3.135 1.249 6.225 1.409 8.729 0.8 -18.508 18.508-7.2 24.044-3.8 43.63 1.291-8.023 5.813-11.861 9.25-18.229 3.456-6.434 2.206-13.346 6.01-21.3C167.924 123.713 178.348 111.793 167.879 61.476zM136.719 145.355c10.184-1.965 18.639-15.794 17.193-27.181 3.127 7.31 3.785 12.573-0.413 18.921C149.909 143.246 143.775 147.014 136.719 145.355zM155.356 136.595L155.356 136.595c-0.008-0.008-0.009-0.01-0.027-0.01C155.316 136.585 155.341 136.58 155.356 136.595zM168.709 105.035c-2.086 29.331-15.352 38.543-17.63 54 -2.551 17.787-8.397 14.561-11.22 28.42 -3.092-17.286-11.779-25.501 4.99-41.729 7.597-2.349 15.125-11.563 12.619-23.141 -3.939-18.205-19.696-28.375-30.75-85.2 0.001 0.021 0.004 0.041 0.005 0.062 -0.188-0.892-0.424-1.969-0.574-2.721 -0.041-0.039-1.392-8.322 0.028 1.145 0.448 15.911 4.518 40.049 9.187 49.243 -14.321-18.218-17.941-38.157-18.659-46.634 0.132-1.054 0.262-2.123 0.391-3.217v0.001c0.594-4.784 1.755-12.568-0.516 1.36 -7.278 20.704-16.344 31.664-18.591 34.042 -7.751 8.047-19.589 11.732-22.89 12.03 19.078-8.456 25.617-31.208 28.85-51.12 -0.116 0.562-1.372 6.57-1.26 6.01 -5.817 15.457-13.401 33.887-42.791 48.39 21.149-26.064 32.342-46.549 37.38-60.3 -10.229 24.39-39.564 59.988-42.96 68.23 -1.051-33.877 10.756-57.804 22.45-68.31 -12.185 9.517-27.02 37.211-24.03 73.01 1.093 6.624 3.499 23.741 2.033 30.36 0.267-4.023-0.573-9.699-1.343-12.41v-0.011c-3.027-10.95-10.455-19.118-11.85-31.479 -1.26-11.15-0.79-22.64 4.16-32.88 -3.67 6.9-5.469 14.376-5.76 22.17 -0.845 22.599 5.915 24.877 9.065 36.278 -9.468 16.356-1.527 45.11 17.855 39.802 -11.657 9.495-21.668-7.561-23.435-10.817 -2.728-6.707-3.268-14.404-3.604-21.543 -0.12 51.119 33.988 27.358 27.697 71.093 -0.804-3.887-10.145-12.2-11.137-13.202 -15.067-15.233-11.885-24.441-17-41.98 -2.092-9.778-4.664-13.319-6.303-18.315 -6.389-20.335-2.216-50.915 4.113-69.265 12.133-28.275 31.378-46.868 62-47.87 7.224-0.239 22.339 2.489 13.6 1.26 4.341 0.897 6.861 1.884 10.97 3.44 50.765 19.143 45.277 99.834 44.92 101.77C168.719 105.005 168.709 105.015 168.709 105.035z" fill="#452c22" stroke-width="none" opacity="1" stroke="none"></path></g><g id="svga-group-glasses-single" ><path id="SvgjsPath6093" d="M100,18.13L100,18.13L100,18.13L100,18.13z" fill="#26120b" stroke-width="none" opacity="1"></path></g></g></g><rect id="SvgjsRect5946" width="200" height="15" x="0" y="185" fill="#ecf0f1" opacity="0.5" style="display:none;"></rect><text id="SvgjsText5947" font-family="&quot;Roboto&quot;, &quot;Helvetica Neue&quot;, Helvetica, Arial, sans-serif" style="font-size:0.84em;font-family:&quot;Roboto&quot;, &quot;Helvetica Neue&quot;, Helvetica, Arial, sans-serif;text-anchor:middle;font-weight:400;display:none;" font-size="0.84em" text-anchor="middle" font-weight="400" fill="#000000" x="100" y="185"><tspan id="SvgjsTspan5948" dy="1.2em" x="100" style="font-size:0.84em;font-family:&quot;Roboto&quot;, &quot;Helvetica Neue&quot;, Helvetica, Arial, sans-serif;text-anchor:middle;font-weight:400;">Created on AvatarMaker.com</tspan></text></g><defs id="SvgjsDefs5914"><radialGradient id="SvgjsRadialGradient5962" cx="100" cy="113" r="40" gradientUnits="userSpaceOnUse" class="svga-on-canvas-facehighlight-gradient-single-0"><stop id="SvgjsStop5963" stop-opacity="0.5" stop-color="#fbe4dd" offset="0" ></stop><stop id="SvgjsStop5964" stop-opacity="0" stop-color="#ecc4b8" offset="0.9" ></stop></radialGradient><radialGradient id="SvgjsRadialGradient5966" cx="100" cy="57" r="36" gradientUnits="userSpaceOnUse" class="svga-on-canvas-facehighlight-gradient-single-1"><stop id="SvgjsStop5967" stop-opacity="0.5" stop-color="#fbe4dd" offset="0" ></stop><stop id="SvgjsStop5968" stop-opacity="0" stop-color="#ecc4b8" offset="0.9" ></stop></radialGradient><radialGradient id="SvgjsRadialGradient6047" cx="-558.588" cy="-490.918" r="84.646" gradientTransform="matrix(0.096 -0.0248 0.0245 0.0961 140.5478 120.3577)" gradientUnits="userSpaceOnUse" class="svga-on-canvas-eyesiris-gradient-left-1"><stop id="SvgjsStop6048" stop-opacity="0.8" stop-color="#ffffff" offset="0" ></stop><stop id="SvgjsStop6049" stop-opacity="0" stop-color="#ffffff" offset="1" ></stop></radialGradient><radialGradient id="SvgjsRadialGradient6051" cx="-565.337" cy="-492.691" r="84.644" gradientTransform="matrix(0.0991 8.856325e-004 -0.0011 0.0991 130.3774 136.3533)" gradientUnits="userSpaceOnUse" class="svga-on-canvas-eyesiris-gradient-left-2"><stop id="SvgjsStop6052" stop-opacity="0.8" stop-color="#ffffff" offset="0" ></stop><stop id="SvgjsStop6053" stop-opacity="0" stop-color="#ffffff" offset="1" ></stop></radialGradient><linearGradient id="SvgjsLinearGradient6057" x1="122.283" y1="93.047" x2="123.61" y2="91.466" gradientTransform="matrix(1 0 0 1 -52 0)" gradientUnits="userSpaceOnUse" class="svga-on-canvas-eyesiris-gradient-left-5"><stop id="SvgjsStop6058" stop-opacity="1" stop-color="#ffffff" offset="0" ></stop><stop id="SvgjsStop6059" stop-opacity="0" stop-color="#ffffff" offset="1" ></stop></linearGradient><linearGradient id="SvgjsLinearGradient6061" x1="127" y1="85" x2="125" y2="87" gradientTransform="matrix(1 0 0 1 -50 0)" gradientUnits="userSpaceOnUse" class="svga-on-canvas-eyesiris-gradient-left-6"><stop id="SvgjsStop6062" stop-opacity="1" stop-color="#ffffff" offset="0" ></stop><stop id="SvgjsStop6063" stop-opacity="0" stop-color="#ffffff" offset="1" ></stop></linearGradient><linearGradient id="SvgjsLinearGradient6065" x1="130" y1="81" x2="126" y2="85" gradientTransform="matrix(1 0 0 1 -50 0)" gradientUnits="userSpaceOnUse" class="svga-on-canvas-eyesiris-gradient-left-7"><stop id="SvgjsStop6066" stop-opacity="1" stop-color="#ffffff" offset="0" ></stop><stop id="SvgjsStop6067" stop-opacity="0" stop-color="#ffffff" offset="1" ></stop></linearGradient><radialGradient id="SvgjsRadialGradient6070" cx="-578.76" cy="-490.73" r="84.646" gradientTransform="matrix(0.096 -0.0248 0.0245 0.0961 192.4794 119.8404)" gradientUnits="userSpaceOnUse" class="svga-on-canvas-eyesiris-gradient-right-1"><stop id="SvgjsStop6071" stop-opacity="0.8" stop-color="#ffffff" offset="0" ></stop><stop id="SvgjsStop6072" stop-opacity="0" stop-color="#ffffff" offset="1" ></stop></radialGradient><radialGradient id="SvgjsRadialGradient6074" cx="-584.778" cy="-487.329" r="84.644" gradientTransform="matrix(0.0991 8.856325e-004 -0.0011 0.0991 182.3104 135.839)" gradientUnits="userSpaceOnUse" class="svga-on-canvas-eyesiris-gradient-right-2"><stop id="SvgjsStop6075" stop-opacity="0.8" stop-color="#ffffff" offset="0" ></stop><stop id="SvgjsStop6076" stop-opacity="0" stop-color="#ffffff" offset="1" ></stop></radialGradient><linearGradient id="SvgjsLinearGradient6080" x1="120.284" y1="93.047" x2="121.611" y2="91.467" gradientUnits="userSpaceOnUse" class="svga-on-canvas-eyesiris-gradient-right-5"><stop id="SvgjsStop6081" stop-opacity="1" stop-color="#ffffff" offset="0" ></stop><stop id="SvgjsStop6082" stop-opacity="0" stop-color="#ffffff" offset="1" ></stop></linearGradient><linearGradient id="SvgjsLinearGradient6084" x1="127" y1="85" x2="125" y2="87" gradientUnits="userSpaceOnUse" class="svga-on-canvas-eyesiris-gradient-right-6"><stop id="SvgjsStop6085" stop-opacity="1" stop-color="#ffffff" offset="0" ></stop><stop id="SvgjsStop6086" stop-opacity="0" stop-color="#ffffff" offset="1" ></stop></linearGradient><linearGradient id="SvgjsLinearGradient6088" x1="130" y1="81" x2="126" y2="85" gradientUnits="userSpaceOnUse" class="svga-on-canvas-eyesiris-gradient-right-7"><stop id="SvgjsStop6089" stop-opacity="1" stop-color="#ffffff" offset="0" ></stop><stop id="SvgjsStop6090" stop-opacity="0" stop-color="#ffffff" offset="1" ></stop></linearGradient><radialGradient id="SvgjsRadialGradient6117" cx="100" cy="100" r="150" gradientUnits="userSpaceOnUse" class="svga-on-canvas-backs-gradient-single-1"><stop id="SvgjsStop6118" stop-opacity="0" stop-color="#5e8c6a" offset="0" ></stop><stop id="SvgjsStop6119" stop-opacity="1" stop-color="#477d55" offset="0.2" ></stop><stop id="SvgjsStop6120" stop-opacity="0" stop-color="#477d55" offset="1" ></stop></radialGradient><radialGradient id="SvgjsRadialGradient6157" cx="125.219" cy="89.891" r="13.439" gradientTransform="matrix(-1.0552 0.0927 0.0919 1.0549 197.7875 -17.4055)" gradientUnits="userSpaceOnUse" class="svga-on-canvas-eyesback-gradient-left-0"><stop id="SvgjsStop6158" stop-opacity="1" stop-color="#ffffff" offset="0" ></stop><stop id="SvgjsStop6159" stop-opacity="1" stop-color="#fdfefe" offset="0.544" ></stop><stop id="SvgjsStop6160" stop-opacity="1" stop-color="#f6f8f9" offset="0.74" ></stop><stop id="SvgjsStop6161" stop-opacity="1" stop-color="#eaeff2" offset="0.879" ></stop><stop id="SvgjsStop6162" stop-opacity="1" stop-color="#d9e3e8" offset="0.992" ></stop><stop id="SvgjsStop6163" stop-opacity="1" stop-color="#d8e2e7" offset="1" ></stop></radialGradient><radialGradient id="SvgjsRadialGradient6165" cx="125.219" cy="89.891" r="13.439" gradientTransform="matrix(1.0552 0.0927 -0.0919 1.0549 2.2125 -17.4055)" gradientUnits="userSpaceOnUse" class="svga-on-canvas-eyesback-gradient-right-0"><stop id="SvgjsStop6166" stop-opacity="1" stop-color="#ffffff" offset="0" ></stop><stop id="SvgjsStop6167" stop-opacity="1" stop-color="#fdfefe" offset="0.544" ></stop><stop id="SvgjsStop6168" stop-opacity="1" stop-color="#f6f8f9" offset="0.74" ></stop><stop id="SvgjsStop6169" stop-opacity="1" stop-color="#eaeff2" offset="0.879" ></stop><stop id="SvgjsStop6170" stop-opacity="1" stop-color="#d9e3e8" offset="0.992" ></stop><stop id="SvgjsStop6171" stop-opacity="1" stop-color="#d8e2e7" offset="1" ></stop></radialGradient><radialGradient id="SvgjsRadialGradient6173" cx="125.219" cy="89.891" r="13.439" gradientTransform="matrix(-1.0552 0.0927 0.0919 1.0549 197.7875 -17.4055)" gradientUnits="userSpaceOnUse" class="svga-on-canvas-eyesfront-gradient-left-0"><stop id="SvgjsStop6174" stop-opacity="1" stop-color="#ffffff" offset="0" ></stop><stop id="SvgjsStop6175" stop-opacity="1" stop-color="#fdfefe" offset="0.544" ></stop><stop id="SvgjsStop6176" stop-opacity="1" stop-color="#f6f8f9" offset="0.74" ></stop><stop id="SvgjsStop6177" stop-opacity="1" stop-color="#eaeff2" offset="0.879" ></stop><stop id="SvgjsStop6178" stop-opacity="1" stop-color="#d9e3e8" offset="0.992" ></stop><stop id="SvgjsStop6179" stop-opacity="1" stop-color="#d8e2e7" offset="1" ></stop></radialGradient><radialGradient id="SvgjsRadialGradient6183" cx="124.909" cy="84.956" fx="139.085" fy="84.626" r="17.962" gradientTransform="matrix(0.9998 0.0208 0.0193 -0.9282 -51.4325 161.2135)" gradientUnits="userSpaceOnUse" class="svga-on-canvas-eyesfront-gradient-left-3"><stop id="SvgjsStop6184" stop-opacity="1" stop-color="#dda696" offset="0" ></stop><stop id="SvgjsStop6185" stop-opacity="0.3" stop-color="#dda696" offset="0.7" ></stop><stop id="SvgjsStop6186" stop-opacity="0" stop-color="#ecc4b8" offset="1" ></stop></radialGradient><radialGradient id="SvgjsRadialGradient6188" cx="82.066" cy="77.677" r="19.326" gradientTransform="matrix(0.6928 -0.0978 0.0983 0.7033 9.9183 45.7976)" gradientUnits="userSpaceOnUse" class="svga-on-canvas-eyesfront-gradient-left-4"><stop id="SvgjsStop6189" stop-opacity="0" stop-color="#000000" offset="0.9" ></stop><stop id="SvgjsStop6190" stop-opacity="0.3" stop-color="#000000" offset="1" ></stop></radialGradient><radialGradient id="SvgjsRadialGradient6194" cx="125.219" cy="89.891" r="13.439" gradientTransform="matrix(1.0552 0.0927 -0.0919 1.0549 2.2125 -17.4055)" gradientUnits="userSpaceOnUse" class="svga-on-canvas-eyesfront-gradient-right-0"><stop id="SvgjsStop6195" stop-opacity="1" stop-color="#ffffff" offset="0" ></stop><stop id="SvgjsStop6196" stop-opacity="1" stop-color="#fdfefe" offset="0.544" ></stop><stop id="SvgjsStop6197" stop-opacity="1" stop-color="#f6f8f9" offset="0.74" ></stop><stop id="SvgjsStop6198" stop-opacity="1" stop-color="#eaeff2" offset="0.879" ></stop><stop id="SvgjsStop6199" stop-opacity="1" stop-color="#d9e3e8" offset="0.992" ></stop><stop id="SvgjsStop6200" stop-opacity="1" stop-color="#d8e2e7" offset="1" ></stop></radialGradient><radialGradient id="SvgjsRadialGradient6204" cx="124.909" cy="84.956" fx="139.085" fy="84.626" r="17.962" gradientTransform="matrix(-0.9998 0.0208 -0.0193 -0.9282 251.4325 161.2135)" gradientUnits="userSpaceOnUse" class="svga-on-canvas-eyesfront-gradient-right-3"><stop id="SvgjsStop6205" stop-opacity="1" stop-color="#dda696" offset="0" ></stop><stop id="SvgjsStop6206" stop-opacity="0.3" stop-color="#dda696" offset="0.7" ></stop><stop id="SvgjsStop6207" stop-opacity="0" stop-color="#ecc4b8" offset="1" ></stop></radialGradient><radialGradient id="SvgjsRadialGradient6209" cx="82.066" cy="77.677" r="19.326" gradientTransform="matrix(-0.6928 -0.0978 -0.0983 0.7033 190.0817 45.7978)" gradientUnits="userSpaceOnUse" class="svga-on-canvas-eyesfront-gradient-right-4"><stop id="SvgjsStop6210" stop-opacity="0" stop-color="#000000" offset="0.9" ></stop><stop id="SvgjsStop6211" stop-opacity="0.3" stop-color="#000000" offset="1" ></stop></radialGradient><linearGradient id="SvgjsLinearGradient6217" x1="100" y1="143" x2="100" y2="140" gradientUnits="userSpaceOnUse" class="svga-on-canvas-mouth-gradient-single-0"><stop id="SvgjsStop6218" stop-opacity="1" stop-color="#e4b5a7" offset="0.1" ></stop><stop id="SvgjsStop6219" stop-opacity="1" stop-color="#dda696" offset="1" ></stop></linearGradient><linearGradient id="SvgjsLinearGradient6241" x1="99.98" y1="171.27" x2="99.98" y2="136.351" gradientUnits="userSpaceOnUse" class="svga-on-canvas-chinshadow-gradient-single-0"><stop id="SvgjsStop6242" stop-opacity="0.8" stop-color="#dda696" offset="0" ></stop><stop id="SvgjsStop6243" stop-opacity="1" stop-color="#be725b" offset="0.7" ></stop></linearGradient></defs></svg>